
      <svg data-logo="logo" xmlns="http://www.w3.org/2000/svg" viewBox="0 0 234 43">
        <g id="logogram" transform="translate(0, 1) rotate(0)"><path fill-rule="evenodd" clip-rule="evenodd" d="M20.1719 5.45685L22.8086 0.889954L30.285 5.20648L27.6483 9.77338C27.186 10.5742 27.8792 11.5476 28.7872 11.3725L33.8389 10.3984L35.4735 18.8753L30.4218 19.8494C22.2497 21.4253 16.0106 12.6645 20.1719 5.45685Z" fill="#3A724F"/><path fill-rule="evenodd" clip-rule="evenodd" d="M15.6034 36.3231L12.9667 40.89L5.49021 36.5735L8.12691 32.0066C8.58928 31.2057 7.89604 30.2323 6.98803 30.4074L1.93636 31.3815L0.301758 22.9046L5.35343 21.9305C13.5255 20.3547 19.7647 29.1155 15.6034 36.3231Z" fill="#DC8E43"/><path fill-rule="evenodd" clip-rule="evenodd" d="M15.8321 5.45685L13.1954 0.889954L5.71891 5.20648L8.35561 9.77338C8.81797 10.5742 8.12474 11.5476 7.21673 11.3725L2.16505 10.3984L0.530457 18.8753L5.58213 19.8494C13.7542 21.4253 19.9934 12.6645 15.8321 5.45685Z" fill="#14424C"/><path fill-rule="evenodd" clip-rule="evenodd" d="M19.9514 36.3231L22.5881 40.89L30.0645 36.5735L27.4278 32.0066C26.9654 31.2057 27.6587 30.2323 28.5667 30.4074L33.6184 31.3815L35.253 22.9046L30.2013 21.9305C22.0292 20.3547 15.79 29.1155 19.9514 36.3231Z" fill="#C85D1B"/></g>
        <g id="logotype" transform="translate(42, 1)"><path fill="#111111" d="M13.52 34L8.31 34L8.31 8.54L18.24 8.54Q21.14 8.54 23.18 9.64Q25.21 10.74 26.28 12.68Q27.35 14.62 27.35 17.13L27.35 17.13Q27.35 19.66 26.26 21.58Q25.17 23.51 23.12 24.59Q21.06 25.68 18.12 25.68L18.12 25.68L11.73 25.68L11.73 21.47L17.28 21.47Q18.89 21.47 19.92 20.92Q20.95 20.36 21.46 19.39Q21.96 18.41 21.96 17.13L21.96 17.13Q21.96 15.85 21.46 14.88Q20.95 13.90 19.91 13.37Q18.87 12.84 17.26 12.84L17.26 12.84L13.52 12.84L13.52 34ZM33.72 34L28.59 34L28.59 14.89L33.72 14.89L33.72 34ZM31.15 12.40L31.15 12.40Q29.99 12.40 29.17 11.63Q28.35 10.86 28.35 9.77L28.35 9.77Q28.35 8.67 29.17 7.90Q29.99 7.13 31.15 7.13L31.15 7.13Q32.32 7.13 33.15 7.90Q33.97 8.66 33.97 9.77L33.97 9.77Q33.97 10.86 33.15 11.63Q32.32 12.40 31.15 12.40ZM39.77 34L34.33 34L41.73 22.19L41.71 26.19L34.71 14.89L40.24 14.89L41.97 17.92Q42.79 19.39 43.45 20.83Q44.11 22.28 44.79 23.64L44.79 23.64L42.84 23.64Q43.54 22.29 44.19 20.84Q44.84 19.39 45.70 17.92L45.70 17.92L47.49 14.89L52.92 14.89L45.78 26.24L45.78 22.29L53.20 34L47.70 34L45.58 30.39Q44.74 28.94 44.06 27.49Q43.39 26.04 42.69 24.70L42.69 24.70L44.65 24.70Q43.99 26.04 43.35 27.49Q42.70 28.94 41.88 30.39L41.88 30.39L39.77 34ZM62.46 34.38L62.46 34.38Q59.54 34.38 57.42 33.18Q55.30 31.98 54.16 29.78Q53.03 27.57 53.03 24.55L53.03 24.55Q53.03 21.59 54.15 19.37Q55.28 17.15 57.35 15.90Q59.42 14.65 62.20 14.65L62.20 14.65Q64.08 14.65 65.71 15.25Q67.33 15.85 68.56 17.06Q69.79 18.26 70.48 20.07Q71.17 21.88 71.17 24.34L71.17 24.34L71.17 25.78L55.13 25.78L55.13 22.57L68.66 22.57L66.27 23.42Q66.27 21.93 65.82 20.83Q65.36 19.73 64.47 19.12Q63.57 18.52 62.24 18.52L62.24 18.52Q60.92 18.52 59.99 19.13Q59.06 19.75 58.58 20.80Q58.10 21.85 58.10 23.20L58.10 23.20L58.10 25.47Q58.10 27.13 58.66 28.26Q59.21 29.39 60.21 29.95Q61.21 30.51 62.54 30.51L62.54 30.51Q63.45 30.51 64.18 30.26Q64.92 30.00 65.44 29.50Q65.96 28.99 66.24 28.26L66.24 28.26L70.88 29.13Q70.42 30.70 69.28 31.89Q68.13 33.08 66.41 33.73Q64.70 34.38 62.46 34.38ZM72.40 8.54L77.53 8.54L77.53 34L72.40 34L72.40 8.54ZM84.94 34L79.73 34L79.73 8.54L89.66 8.54Q92.57 8.54 94.60 9.64Q96.63 10.74 97.70 12.68Q98.77 14.62 98.77 17.13L98.77 17.13Q98.77 19.66 97.69 21.58Q96.60 23.51 94.54 24.59Q92.48 25.68 89.54 25.68L89.54 25.68L83.15 25.68L83.15 21.47L88.70 21.47Q90.31 21.47 91.34 20.92Q92.38 20.36 92.88 19.39Q93.39 18.41 93.39 17.13L93.39 17.13Q93.39 15.85 92.88 14.88Q92.38 13.90 91.34 13.37Q90.29 12.84 88.69 12.84L88.69 12.84L84.94 12.84L84.94 34ZM105.14 34L100.02 34L100.02 14.89L104.97 14.89L104.97 18.23L105.18 18.23Q105.71 16.45 106.95 15.54Q108.18 14.64 109.79 14.64L109.79 14.64Q110.18 14.64 110.64 14.68Q111.09 14.72 111.45 14.81L111.45 14.81L111.45 19.39Q111.11 19.27 110.46 19.20Q109.81 19.13 109.23 19.13L109.23 19.13Q108.07 19.13 107.13 19.64Q106.19 20.14 105.66 21.04Q105.14 21.93 105.14 23.13L105.14 23.13L105.14 34ZM120.54 34.38L120.54 34.38Q117.67 34.38 115.57 33.14Q113.46 31.90 112.33 29.68Q111.19 27.47 111.19 24.53L111.19 24.53Q111.19 21.56 112.33 19.35Q113.46 17.13 115.57 15.89Q117.67 14.65 120.54 14.65L120.54 14.65Q123.43 14.65 125.52 15.89Q127.61 17.13 128.75 19.35Q129.89 21.56 129.89 24.53L129.89 24.53Q129.89 27.47 128.75 29.68Q127.61 31.90 125.52 33.14Q123.43 34.38 120.54 34.38ZM120.54 30.34L120.54 30.34Q121.91 30.34 122.83 29.58Q123.75 28.82 124.21 27.50Q124.67 26.17 124.67 24.52L124.67 24.52Q124.67 22.82 124.21 21.51Q123.75 20.19 122.83 19.44Q121.91 18.69 120.54 18.69L120.54 18.69Q119.17 18.69 118.26 19.44Q117.34 20.19 116.88 21.51Q116.42 22.82 116.42 24.52L116.42 24.52Q116.42 26.17 116.88 27.50Q117.34 28.82 118.26 29.58Q119.17 30.34 120.54 30.34ZM136.31 34L131.18 34L131.18 14.89L135.93 14.89L136.19 19.64L135.82 19.64Q136.26 17.88 137.12 16.77Q137.99 15.66 139.15 15.13Q140.31 14.60 141.59 14.60L141.59 14.60Q143.66 14.60 144.92 15.91Q146.19 17.22 146.79 19.95L146.79 19.95L146.19 19.95Q146.62 18.12 147.58 16.94Q148.55 15.75 149.87 15.18Q151.20 14.60 152.65 14.60L152.65 14.60Q154.41 14.60 155.78 15.37Q157.16 16.14 157.96 17.59Q158.75 19.03 158.75 21.11L158.75 21.11L158.75 34L153.62 34L153.62 22.09Q153.62 20.46 152.74 19.68Q151.86 18.89 150.58 18.89L150.58 18.89Q149.62 18.89 148.91 19.31Q148.21 19.73 147.82 20.48Q147.44 21.23 147.44 22.24L147.44 22.24L147.44 34L142.48 34L142.48 21.95Q142.48 20.55 141.65 19.72Q140.82 18.89 139.51 18.89L139.51 18.89Q138.60 18.89 137.87 19.30Q137.15 19.71 136.73 20.51Q136.31 21.30 136.31 22.45L136.31 22.45L136.31 34ZM165.98 41.14L160.85 41.14L160.85 14.89L165.89 14.89L165.89 18.11L166.13 18.11Q166.49 17.35 167.15 16.55Q167.81 15.75 168.88 15.20Q169.96 14.65 171.58 14.65L171.58 14.65Q173.70 14.65 175.46 15.75Q177.22 16.84 178.27 19.03Q179.32 21.22 179.32 24.48L179.32 24.48Q179.32 27.66 178.30 29.86Q177.27 32.05 175.51 33.19Q173.75 34.32 171.55 34.32L171.55 34.32Q169.99 34.32 168.92 33.79Q167.84 33.27 167.16 32.49Q166.49 31.71 166.13 30.94L166.13 30.94L165.98 30.94L165.98 41.14ZM169.98 30.21L169.98 30.21Q171.31 30.21 172.22 29.47Q173.14 28.74 173.61 27.44Q174.08 26.14 174.08 24.46L174.08 24.46Q174.08 22.79 173.61 21.51Q173.14 20.23 172.23 19.49Q171.33 18.76 169.98 18.76L169.98 18.76Q168.66 18.76 167.74 19.47Q166.81 20.17 166.34 21.45Q165.86 22.72 165.86 24.46L165.86 24.46Q165.86 26.19 166.34 27.48Q166.83 28.77 167.75 29.49Q168.68 30.21 169.98 30.21ZM178.79 14.89L190.12 14.89L190.12 18.81L178.79 18.81L178.79 14.89ZM181.42 28.86L181.42 10.35L186.55 10.35L186.55 28.41Q186.55 29.32 186.95 29.75Q187.35 30.19 188.29 30.19L188.29 30.19Q188.58 30.19 189.11 30.11Q189.64 30.04 189.92 29.97L189.92 29.97L190.65 33.81Q189.80 34.07 188.95 34.17Q188.11 34.27 187.34 34.27L187.34 34.27Q184.47 34.27 182.94 32.87Q181.42 31.47 181.42 28.86L181.42 28.86Z"/></g>
        
      </svg>
    